<?xml version="1.0" encoding="utf-8"?><svg viewBox="0 0 25.437 16.094" xmlns="http://www.w3.org/2000/svg" xmlns:xlink="http://www.w3.org/1999/xlink"><style>:root>svg{display:none}:root>svg:target{display:block}</style><svg viewBox="0 0 7.531 11.438" id="arrow-next" xmlns="http://www.w3.org/2000/svg"><defs><style>.acls-1{fill:#fff;fill-rule:evenodd}</style></defs><path id="aright_arrow" data-name="right arrow" class="acls-1" d="M89.3 352.286L94.978 358l-5.678 5.714-1.88-1.867L91.244 358l-3.821-3.847z" transform="translate(-87.438 -352.281)"/></svg><svg viewBox="0 0 7.531 11.438" id="arrow-prev" xmlns="http://www.w3.org/2000/svg"><defs><style>.bcls-1{fill:#fff;fill-rule:evenodd}</style></defs><path id="bleft_arrow" data-name="left arrow" class="bcls-1" d="M56.1 363.714L50.429 358l5.675-5.714 1.88 1.867L54.162 358l3.821 3.848z" transform="translate(-50.438 -352.281)"/></svg><svg viewBox="0 0 16 16" id="dribbble" xmlns="http://www.w3.org/2000/svg"><defs><style>.ccls-1{fill:#fff;fill-rule:evenodd}</style></defs><path id="cdribbble" class="ccls-1" d="M942.833 25.611a8 8 0 01-.465 1.5 8.1 8.1 0 01-.737 1.36 8.2 8.2 0 01-.977 1.182 8.007 8.007 0 01-7.264 2.179 7.924 7.924 0 01-2.862-1.2 8.005 8.005 0 01-2.9-3.517 8.025 8.025 0 010-6.225 7.993 7.993 0 0113.022-2.541 7.959 7.959 0 011.714 2.541 8.032 8.032 0 01.469 4.721zm-4.044 3.9a6.689 6.689 0 002.378-2.91 6.574 6.574 0 00.39-1.257c.021-.1.031-.2.047-.307a9.566 9.566 0 00-.216-.058l-.04-.01a12.28 12.28 0 00-.754-.155 9.823 9.823 0 00-3.106-.027 30.237 30.237 0 011.301 4.728zm-6.394.652a6.712 6.712 0 001.256.39 6.768 6.768 0 002.7 0 6.676 6.676 0 001.257-.39l.037-.018a28.752 28.752 0 00-1.436-5.045l-.043.013a11.474 11.474 0 00-1.135.469l-.152.07c-.328.161-.632.331-.914.506-.053.033-.106.065-.157.1-.272.175-.527.354-.757.534-.037.028-.07.057-.105.085a9.33 9.33 0 00-.642.559 8.996 8.996 0 00-.516.542l-.065.073c-.139.162-.26.315-.365.456l-.058.078c-.1.134-.182.259-.248.364l-.031.05c-.063.1-.116.192-.15.255.128.1.256.2.391.293a6.755 6.755 0 001.138.62zm-4.077-6.382c0 .072-.011.143-.011.215a6.813 6.813 0 00.135 1.348 6.648 6.648 0 00.391 1.257 5.616 5.616 0 001.173 1.81c.045-.072.113-.175.194-.291l.039-.058a16.6 16.6 0 01.3-.412l.069-.088c.126-.159.266-.329.426-.509l.074-.081c.173-.192.36-.391.572-.595.206-.2.436-.4.679-.6l.109-.091q.357-.285.766-.553l.154-.1a9.584 9.584 0 01.885-.5c.047-.023.1-.044.144-.066a8.843 8.843 0 011.053-.424c.086-.028.175-.049.263-.074a23.375 23.375 0 00-.552-1.169 25.182 25.182 0 01-6.506.974c-.15.011-.275.012-.357.011zm3.854-5.845a6.674 6.674 0 00-3.339 3.455 6.628 6.628 0 00-.376 1.2h.299a21.31 21.31 0 001-.045 26.3 26.3 0 004.232-.629c.207-.049.417-.1.628-.157a41.613 41.613 0 00-2.444-3.82zm6.57.509a6.716 6.716 0 00-5.091-1.007c-.057.012-.112.03-.169.043a35.024 35.024 0 012.455 3.851c.267-.1.517-.206.75-.315l.014-.007a7.462 7.462 0 002.712-2.01 6.808 6.808 0 00-.671-.55zm2.815 4.2a6.592 6.592 0 00-.39-1.256 6.786 6.786 0 00-.617-1.137c-.111-.165-.254-.306-.38-.461a8.857 8.857 0 01-2.885 2.184l-.054.027c-.241.12-.494.235-.767.347.161.329.316.663.46 1 .051.12.094.236.142.355.244-.031.485-.051.725-.066l.121-.006q.307-.016.6-.019h.1c.227 0 .449 0 .663.013h.047c.194.009.379.021.557.035l.127.01c.174.015.341.031.5.049h.031c.166.019.316.04.455.059l.1.015.282.045.07.012.242.044a6.825 6.825 0 00-.129-1.244z" transform="translate(-927 -16)"/></svg><svg viewBox="0 0 7.5 16" id="facebook" xmlns="http://www.w3.org/2000/svg"><defs><style>.dcls-1{fill:#fff;fill-rule:evenodd}</style></defs><path id="dfacebook" class="dcls-1" d="M906.339 31h-3.333v-8h-2v-2.667h2v-1.626c0-2.223.674-3.707 3.293-3.707h2.04v2.667h-1.222c-1.02 0-1.087.486-1.087 1.2v1.47h2.468L908.206 23h-1.867v8z" transform="translate(-901 -15)"/></svg><svg viewBox="0 0 15.969 15.969" id="gear-icon" xmlns="http://www.w3.org/2000/svg"><defs><style>.ecls-1{fill:#fff;fill-rule:evenodd}</style></defs><path id="eicon" class="ecls-1" d="M89.38 720.248h-.847a6.045 6.045 0 01-.588 1.408l.783.783a1.282 1.282 0 010 1.813l-.453.454a1.282 1.282 0 01-1.814 0l-.788-.788a6.029 6.029 0 01-1.4.578v.821a1.283 1.283 0 01-1.282 1.283h-.645a1.283 1.283 0 01-1.282-1.283v-.817a6.032 6.032 0 01-1.4-.578l-.787.788a1.282 1.282 0 01-1.814 0l-.453-.454a1.282 1.282 0 010-1.813l.783-.783a6.04 6.04 0 01-.587-1.408h-.852a1.282 1.282 0 01-1.282-1.283v-.641a1.282 1.282 0 011.282-1.282h.836a6.046 6.046 0 01.567-1.4l-.752-.752a1.283 1.283 0 010-1.814l.453-.453a1.282 1.282 0 011.814 0l.738.737a6.1 6.1 0 011.453-.608v-.861a1.282 1.282 0 011.282-1.282h.641a1.282 1.282 0 011.282 1.282v.861a6.094 6.094 0 011.453.608l.738-.737a1.282 1.282 0 011.814 0l.453.453a1.283 1.283 0 010 1.814l-.752.752a6.051 6.051 0 01.568 1.4h.838a1.282 1.282 0 011.282 1.282v.641a1.282 1.282 0 01-1.282 1.279zm-6.713-5.11a3.527 3.527 0 103.527 3.527 3.527 3.527 0 00-3.527-3.527zm0 5.09a1.6 1.6 0 111.6-1.6 1.6 1.6 0 01-1.6 1.6z" transform="translate(-74.688 -710.625)"/></svg><svg viewBox="0 0 16.094 16.032" id="pen-icon" xmlns="http://www.w3.org/2000/svg"><defs><style>.fcls-1{fill:#fff;fill-rule:evenodd}</style></defs><path id="ficon" class="fcls-1" d="M691.969 726.937l-.985-.88 3.8-8.9 5.75-2.625 3.466 3.187-2.562 5.562zm-1.006.026l.012-.02 5.875-6.468.707.707zm5.037-6.994h2v2h-2v-2zm6.814-9.057l4.243 4.242-2.121 2.122-4.243-4.243z" transform="translate(-690.969 -710.906)"/></svg><svg viewBox="0 0 16.094 16.094" id="rss" xmlns="http://www.w3.org/2000/svg"><defs><style>.gcls-1{fill:#fff;fill-rule:evenodd}</style></defs><path id="grss" class="gcls-1" d="M962 15.413v3.1A13 13 0 01974.987 31.5h3.1A16.088 16.088 0 00962 15.413zm0 5.632v3.1a7.365 7.365 0 017.355 7.357h3.1A10.454 10.454 0 00962 21.045zm1.9 6.663a1.9 1.9 0 101.9 1.9 1.9 1.9 0 00-1.9-1.9z" transform="translate(-962 -15.406)"/></svg><svg viewBox="0 0 25.437 14.25" id="twitter" xmlns="http://www.w3.org/2000/svg"><defs><style>.hcls-1{fill:#fff;fill-rule:evenodd}</style></defs><path id="htwitter" class="hcls-1" d="M881.776 19.63a13.318 13.318 0 00-1.982-2.7 2.507 2.507 0 00-3.327.16 16.7 16.7 0 00-1.759 1.514l-5.162-2.855v.276l1.483 1.468-1.657-.654 1.076 1.221-1.265-.495.164.321a14.163 14.163 0 00-2.374-1.559 17.786 17.786 0 001.18 1.623l-1.437-.807.86 1.323-1.215-.675 3.878 4.108s-6.91 5.483-12.257-.124c0 0 8.636 10.268 15.758 7.855a13.927 13.927 0 007.548-7.855 2.738 2.738 0 01.989-.751 7.843 7.843 0 001.12-.556zm-2.3.908a1.078 1.078 0 01-.876-1.2.92.92 0 111.753 0 1.077 1.077 0 01-.879 1.2z" transform="translate(-857.969 -15.75)"/></svg><svg viewBox="0 0 18.281 15.969" id="user-icon" xmlns="http://www.w3.org/2000/svg"><defs><style>.icls-1{fill:#fff;fill-rule:evenodd}</style></defs><path id="iicon" class="icls-1" d="M390.389 717.862c-.483 1.23-1.572 2.217-1.572 2.931a3.686 3.686 0 001.119 1.76s6.335 2.159 6.335 3.123v1.308h-18.272v-1.31c0-.928 6.431-3.157 6.431-3.157a3.957 3.957 0 00.976-1.719c0-.647-1.08-1.7-1.567-2.933a10.855 10.855 0 01-.2-4.411 3.488 3.488 0 013.47-2.436 3.718 3.718 0 013.47 2.43 12.014 12.014 0 01-.19 4.414z" transform="translate(-378 -711.031)"/></svg></svg>